<svg xmlns="http://www.w3.org/2000/svg" width="512" height="512"><path d="M469.333 64H460.8v-8.533c0-18.851-15.282-34.133-34.133-34.133s-34.133 15.282-34.133 34.133V64H119.467v-8.533c0-18.851-15.282-34.133-34.133-34.133S51.2 36.615 51.2 55.467V64h-8.533C19.103 64 0 83.102 0 106.667V448c0 23.564 19.103 42.667 42.667 42.667h426.667C492.898 490.667 512 471.564 512 448V106.667C512 83.102 492.898 64 469.333 64zM409.6 55.467c0-9.426 7.641-17.067 17.067-17.067s17.067 7.641 17.067 17.067v51.2c0 9.426-7.641 17.067-17.067 17.067s-17.067-7.641-17.067-17.067v-51.2zm-341.333 0c0-9.426 7.641-17.067 17.067-17.067S102.4 46.041 102.4 55.467v51.2c0 9.426-7.641 17.067-17.067 17.067s-17.067-7.641-17.067-17.067v-51.2zM494.933 448c0 14.138-11.461 25.6-25.6 25.6H42.667c-14.138 0-25.6-11.461-25.6-25.6V192h477.867v256zm0-273.067H17.067v-68.267c0-14.138 11.462-25.6 25.6-25.6H51.2v25.6c0 18.851 15.282 34.133 34.133 34.133s34.133-15.282 34.133-34.133v-25.6h273.067v25.6c0 18.851 15.282 34.133 34.133 34.133s34.133-15.282 34.133-34.133v-25.6h8.533c14.138 0 25.6 11.461 25.6 25.6v68.267z" data-original="#000000" class="active-path" data-old_color="#000000" fill="#4990E2"/><path d="M145.067 209.067H59.733c-14.138 0-25.6 11.461-25.6 25.6V294.4c0 14.138 11.461 25.6 25.6 25.6h85.333c14.138 0 25.6-11.462 25.6-25.6v-59.733c.001-14.139-11.461-25.6-25.599-25.6zM153.6 294.4a8.533 8.533 0 01-8.533 8.533H59.733A8.533 8.533 0 0151.2 294.4v-59.733a8.533 8.533 0 018.533-8.533h85.333a8.533 8.533 0 018.533 8.533V294.4zm-8.533 51.2H59.733c-14.138 0-25.6 11.462-25.6 25.6v59.733c0 14.138 11.461 25.6 25.6 25.6h85.333c14.138 0 25.6-11.461 25.6-25.6V371.2c.001-14.138-11.461-25.6-25.599-25.6zm8.533 85.333a8.533 8.533 0 01-8.533 8.533H59.733a8.533 8.533 0 01-8.533-8.533V371.2a8.533 8.533 0 018.533-8.533h85.333a8.533 8.533 0 018.533 8.533v59.733zm298.667-221.866h-85.333c-14.138 0-25.6 11.461-25.6 25.6V294.4c0 14.138 11.461 25.6 25.6 25.6h85.333c14.138 0 25.6-11.462 25.6-25.6v-59.733c0-14.139-11.462-25.6-25.6-25.6zM460.8 294.4a8.533 8.533 0 01-8.533 8.533h-85.333a8.533 8.533 0 01-8.533-8.533v-59.733a8.533 8.533 0 018.533-8.533h85.333a8.533 8.533 0 018.533 8.533V294.4zm-8.533 51.2h-85.333c-14.138 0-25.6 11.462-25.6 25.6v59.733c0 14.138 11.461 25.6 25.6 25.6h85.333c14.138 0 25.6-11.461 25.6-25.6V371.2c0-14.138-11.462-25.6-25.6-25.6zm8.533 85.333a8.533 8.533 0 01-8.533 8.533h-85.333a8.533 8.533 0 01-8.533-8.533V371.2a8.533 8.533 0 018.533-8.533h85.333a8.533 8.533 0 018.533 8.533v59.733zM298.667 209.067h-85.333c-14.139 0-25.6 11.461-25.6 25.6V294.4c0 14.138 11.461 25.6 25.6 25.6h85.333c14.138 0 25.6-11.462 25.6-25.6v-59.733c0-14.139-11.462-25.6-25.6-25.6zM307.2 294.4a8.533 8.533 0 01-8.533 8.533h-85.333a8.533 8.533 0 01-8.533-8.533v-59.733a8.533 8.533 0 018.533-8.533h85.333a8.533 8.533 0 018.533 8.533V294.4zm-8.533 51.2h-85.333c-14.139 0-25.6 11.462-25.6 25.6v59.733c0 14.138 11.461 25.6 25.6 25.6h85.333c14.138 0 25.6-11.461 25.6-25.6V371.2c0-14.138-11.462-25.6-25.6-25.6zm8.533 85.333a8.533 8.533 0 01-8.533 8.533h-85.333a8.533 8.533 0 01-8.533-8.533V371.2a8.533 8.533 0 018.533-8.533h85.333a8.533 8.533 0 018.533 8.533v59.733z" data-original="#000000" class="active-path" data-old_color="#000000" fill="#4990E2"/></svg>