<svg xmlns="http://www.w3.org/2000/svg" width="512" height="512"><path d="M256 0C114.615 0 0 114.615 0 256s114.615 256 256 256 256-114.615 256-256S397.385 0 256 0zm0 494.933C124.041 494.933 17.067 387.959 17.067 256S124.041 17.067 256 17.067 494.933 124.041 494.933 256 387.959 494.933 256 494.933z" data-original="#000000" class="active-path" data-old_color="#000000" fill="#4990E2"/><path d="M394.24 178.347l-59.733-44.8a17.067 17.067 0 00-20.48 0L256 177.067l-58.027-43.52a17.067 17.067 0 00-20.48 0l-59.733 44.8A17.067 17.067 0 00110.933 192v149.333c0 9.426 7.641 17.067 17.067 17.067a17.07 17.07 0 0010.24-3.413l49.493-37.12 58.027 43.52a17.067 17.067 0 0020.48 0l58.027-43.52 49.493 37.12c7.541 5.655 18.238 4.127 23.893-3.413a17.063 17.063 0 003.413-10.24V192a17.06 17.06 0 00-6.826-13.653zM179.2 303.36c-.586.25-1.156.535-1.707.853L128 341.333V192l51.2-38.4v149.76zm68.267 37.973l-49.493-37.12a15.524 15.524 0 00-1.707-.853V153.6l49.493 37.12c.552.318 1.122.603 1.707.853v149.76zm68.266-37.973c-.585.251-1.155.536-1.707.853l-49.493 37.12v-149.76a16.463 16.463 0 001.707-.853l49.493-37.12v149.76zM384 341.333l-49.493-37.12a16.074 16.074 0 00-1.707-.853V153.6L384 192v149.333z" data-original="#000000" class="active-path" data-old_color="#000000" fill="#4990E2"/></svg>