<svg xmlns="http://www.w3.org/2000/svg" viewBox="0 0 512.001 512.001" width="512" height="512"><path d="M504.747 61.526a42.668 42.668 0 00-35.413-18.859H42.667C19.103 42.667 0 61.769 0 85.334v341.333c0 23.564 19.103 42.667 42.667 42.667h431.104c21.816-2.281 38.348-20.732 38.229-42.667V85.334a42.664 42.664 0 00-7.253-23.808zm-462.08-1.792h426.667a25.601 25.601 0 0116.555 6.059L452.78 97.366 313.173 230.4l-51.712 49.323a8.534 8.534 0 01-10.155 0l-52.48-49.323L25.6 65.878a25.595 25.595 0 0117.067-6.144zm-25.6 21.504l163.499 155.136-163.499 156.16v-307.2a25.461 25.461 0 010-4.096zm477.866 345.429c.104 12.963-9.498 23.958-22.357 25.6H42.667c-14.138 0-25.6-11.461-25.6-25.6V415.83l175.872-167.68 47.019 44.715a25.663 25.663 0 003.669 2.475A24.918 24.918 0 00256 298.668a26.886 26.886 0 0017.067-5.973l46.421-44.203L494.933 415.66v11.007zm0-341.333v306.773L331.435 236.63 494.933 81.067c.116 1.42.116 2.847 0 4.267z" data-original="#000000" class="active-path" data-old_color="#000000" fill="#4990E2"/></svg>