<svg xmlns="http://www.w3.org/2000/svg" viewBox="0 0 389.88 75.77"><defs><style>.cls-1{fill:#4990e2}.cls-2{fill:#605f60}</style></defs><g id="Layer_2" data-name="Layer 2"><g id="Слой_1" data-name="Слой 1"><path class="cls-1" d="M31.68 16.5v40h-7.8V23.2H7.8v33.3H0v-40zm21.32 0c4.5 0 7.62.48 10.56 3.06a12.75 12.75 0 014.08 9.66c0 1.56-.24 5.88-3.3 8.94-2.22 2.22-5.52 3.54-10.14 3.54h-5v14.82h-7.8v-40zM49.2 35h3.18a8 8 0 005.1-1.26A6 6 0 0059.64 29a5.51 5.51 0 00-2.22-4.56 9.39 9.39 0 00-5.52-1.26h-2.7zm120.08-1.58L184 16.5h9.84L176.94 35l17.82 21.54h-10.32l-14.22-17.96-.9.9v17h-7.8v-40h7.76zM224 48.12h-16.16l-3.54 8.4h-8.46l17.34-40.86h5.88l16.86 40.86h-8.4zm-2.28-6.36l-5.64-14.4-5.78 14.4zm31.12-25.26c4.5 0 7.62.48 10.56 3.06a12.75 12.75 0 014.08 9.66c0 1.56-.24 5.88-3.3 8.94-2.18 2.22-5.52 3.54-10.18 3.54h-5v14.82h-7.8v-40zM249 35h3.18a8 8 0 005.1-1.26 6 6 0 002.16-4.74 5.51 5.51 0 00-2.22-4.56 9.39 9.39 0 00-5.52-1.26H249zm32.64-3h16.92V16.5h7.8v40h-7.8V38.69h-16.92v17.82h-7.8v-40h7.8zm42.24-15.5v26.88L346 15.6h5.4v40.92h-7.8v-27l-22.12 27.77h-5.4v-40.8zm38.04 3.78a17.28 17.28 0 0112.3-4.68c8.1 0 13.14 4.14 13.14 10.44a9.44 9.44 0 01-4.92 8.46c4.92 1.26 7.44 5.46 7.44 10.32 0 7.62-6.66 12.6-15.9 12.6-7 0-12.18-2.88-15.06-7.56L364 45c1.92 4.26 6.36 5.94 10.14 5.94 5.4 0 7.68-2.94 7.68-5.94 0-5.58-5.52-6.12-8.76-6.12h-3.6v-6.72h3.6c4 0 6.66-1.86 6.66-5.1 0-2.88-1.92-4.62-5.7-4.62a10.72 10.72 0 00-8 3.18z"/><path class="cls-2" d="M137.28 18.5a30.35 30.35 0 00-45.58-.06L85.58 13a38.51 38.51 0 0157.84.08z"/><path class="cls-2" d="M125.78 29.88a17.2 17.2 0 00-23.3 0l-5.53-6a25.37 25.37 0 0134.33 0z"/><path class="cls-1" d="M114.4 75.76A38 38 0 0179.28 23.2l7.54 3.13a29.85 29.85 0 1055.24.16l7.56-3.08a38 38 0 01-35.21 52.36z"/><path class="cls-2" d="M121.79 35.73a11.3 11.3 0 00-15.31 0l3.8 4.15.9 1 .82.89 2.12 2.29 2.13-2.28 1.73-1.9z"/></g></g></svg>